<svg xmlns="http://www.w3.org/2000/svg" width="500" height="500" viewBox="0 0 500 500" version="1.1"><path d="M 234.529 47.585 C 232.336 52.833, 230 65.169, 230 71.500 C 230 91.980, 242.084 115.869, 258.236 127.320 C 264.520 131.775, 274.069 137, 275.927 137 C 276.473 137, 277.893 133.963, 279.083 130.250 C 282.043 121.016, 282.780 103.982, 280.618 94.770 C 275.522 73.058, 260.173 54.433, 240.385 45.951 L 235.998 44.070 234.529 47.585 M 381.874 59.472 C 355.567 68.362, 336.649 93.342, 335.238 121.050 C 334.670 132.212, 336.448 145, 338.568 145 C 341.202 145, 353.258 139.988, 358.968 136.519 C 366.966 131.661, 378.719 119.020, 383.159 110.500 C 390.093 97.196, 392.851 82.519, 390.982 68.871 C 389.273 56.386, 389.700 56.827, 381.874 59.472 M 88.390 112.580 C 88.034 114, 87.959 118.162, 88.223 121.830 C 89.226 135.734, 98.868 147.412, 112.682 151.453 C 114.643 152.027, 114.934 151.625, 115.557 147.468 C 117.651 133.507, 109.489 118.205, 96.761 112.226 C 90.659 109.360, 89.183 109.422, 88.390 112.580 M 210.436 194.305 C 209.507 196.727, 212.807 209.875, 215.659 215.115 C 221.700 226.214, 235.775 235.494, 248.349 236.668 L 255 237.289 255 233.113 C 255 228.096, 251.820 218.235, 248.569 213.171 C 245.967 209.119, 240.272 203.527, 235.229 200.074 C 228.345 195.360, 211.533 191.448, 210.436 194.305 M 458.072 212.547 C 452.711 214.031, 450 215.528, 450 217.002 C 450 218.961, 458.772 226.464, 463.702 228.721 C 468.483 230.910, 470.227 231.184, 476.857 230.791 C 484.343 230.347, 491 228.049, 491 225.909 C 491 225.338, 488.761 222.689, 486.024 220.023 C 478.459 212.655, 467.890 209.828, 458.072 212.547 M 64.362 252.961 C 49.439 255.264, 35.707 262.298, 24.473 273.393 C 16.422 281.344, 13.238 286.377, 14.952 288.442 C 16.662 290.503, 27.150 294.864, 35.581 297.021 C 61.548 303.662, 91.420 292.737, 107.677 270.652 C 110.055 267.422, 112 264.450, 112 264.048 C 112 262.894, 97.080 256.224, 91 254.661 C 83.756 252.798, 70.784 251.970, 64.362 252.961 M 342.331 292.750 C 343.120 304.890, 344.794 311.177, 350.119 322 C 353.465 328.801, 356.019 332.210, 362.900 339.058 C 373.028 349.136, 383.052 354.844, 396.124 357.978 C 409.549 361.196, 409 361.466, 409 351.660 C 409 326.252, 393.840 301.920, 370.978 290.635 C 362.031 286.218, 351.081 283.056, 344.599 283.017 L 341.698 283 342.331 292.750 M 130 326.606 C 126.975 327.416, 120.696 329.919, 116.046 332.167 C 95.250 342.222, 81.078 365.373, 81.017 389.388 L 81 396.276 87.700 395.590 C 117.672 392.519, 142.901 363.385, 142.983 331.750 L 143 325 139.250 325.066 C 137.188 325.102, 133.025 325.795, 130 326.606" stroke="none" fill="#abc240" fill-rule="evenodd"/><path d="M 287.509 156.267 C 287.280 156.945, 283.697 173.415, 279.547 192.867 C 271.301 231.511, 270.593 238.277, 273.892 246.958 C 276.477 253.762, 281.991 260.994, 286.886 264 C 289.125 265.375, 290.825 266.950, 290.663 267.500 C 290.502 268.050, 284.099 298.039, 276.435 334.142 L 262.500 399.783 249 399.341 C 241.575 399.098, 231 399.259, 225.500 399.699 L 215.500 400.500 206.195 357.171 L 196.891 313.842 201.035 309.346 C 205.798 304.179, 209.199 297.295, 211.581 288 C 213.893 278.981, 213.100 260.294, 209.990 250.500 C 204.250 232.421, 194.132 218.652, 182.311 212.832 C 158.931 201.322, 138.492 221.096, 138.724 255 C 138.918 283.421, 155.454 311.725, 174.917 316.951 C 177.228 317.571, 177.722 319.404, 186.127 358.550 C 190.963 381.072, 195.153 400.443, 195.440 401.595 C 195.899 403.443, 195.284 403.841, 190.230 404.962 C 173.782 408.611, 155.001 415.122, 138.610 422.860 C 127.764 427.980, 111.286 437.455, 106.673 441.224 L 103.847 443.534 109.944 451.267 C 113.298 455.520, 116.209 459, 116.413 459 C 116.617 459, 120.770 456.485, 125.642 453.410 C 181.730 418.016, 253.163 410.346, 320.500 432.488 C 334.177 436.985, 352.195 444.992, 360.203 450.131 C 362.818 451.808, 365.410 453.028, 365.962 452.840 C 366.515 452.653, 369.459 448.920, 372.504 444.543 L 378.039 436.587 372.770 433.257 C 364.744 428.184, 346.770 419.712, 334.500 415.217 C 325.128 411.784, 300.610 405.217, 286.396 402.333 L 282.292 401.500 296.234 336.500 C 303.902 300.750, 310.294 271.381, 310.437 271.235 C 310.580 271.089, 313.353 270.278, 316.599 269.433 C 319.844 268.588, 324.368 266.802, 326.651 265.464 C 331.526 262.607, 338.042 255.495, 340.612 250.225 C 342.125 247.123, 359.261 170.966, 358.601 170.277 C 357.797 169.438, 343.509 167.109, 342.959 167.727 C 342.580 168.152, 339.681 180.875, 336.517 196 C 329.588 229.115, 329.282 230, 324.751 230 C 320.593 230, 319 228.489, 319.001 224.550 C 319.002 222.873, 321.702 208.968, 325.001 193.652 C 328.301 178.336, 331 165.443, 331 165.002 C 331 164.167, 316.128 160.539, 315.456 161.210 C 315.246 161.421, 312.309 174.622, 308.929 190.547 C 305.550 206.471, 302.148 220.512, 301.369 221.750 C 300.341 223.385, 298.997 224, 296.456 224 C 289.995 224, 290.015 222.746, 297.001 189.849 C 300.429 173.707, 303.293 160.098, 303.367 159.607 C 303.493 158.759, 298.406 157.119, 291.212 155.689 C 288.998 155.248, 287.788 155.438, 287.509 156.267" stroke="none" fill="#1c1c1c" fill-rule="evenodd"/><path d="M 307.548 43.108 C 299.093 53.107, 297.082 66.989, 302.395 78.670 C 303.939 82.064, 306.222 85.799, 307.469 86.971 L 309.737 89.101 312.528 85.801 C 314.064 83.985, 316.479 80.025, 317.897 77 C 322.676 66.802, 320.770 51.694, 313.667 43.478 L 310.416 39.717 307.548 43.108 M 154.942 94.193 C 149.752 100.758, 145.833 108.496, 142.866 118.035 C 140.999 124.040, 140.547 127.750, 140.559 137 C 140.578 152.578, 143.343 162.151, 151.534 175 C 155.436 181.121, 163.377 190, 164.950 190 C 166.356 190, 174.192 178.442, 177.468 171.536 C 186.110 153.318, 186.101 131.020, 177.443 112.090 C 174.492 105.637, 165.064 92.927, 161.492 90.586 C 159.100 89.019, 158.979 89.086, 154.942 94.193 M 429.929 102.344 C 417.488 105.762, 407.882 115.668, 405.130 127.918 C 404.267 131.758, 404.360 132.052, 406.617 132.619 C 410.214 133.522, 417.858 132.147, 423.500 129.583 C 432.801 125.357, 441.790 113.695, 442.284 105.217 C 442.498 101.542, 442.455 101.498, 438.500 101.294 C 436.300 101.181, 432.443 101.654, 429.929 102.344 M 230.011 131.211 C 217.939 135.845, 209 149.016, 209 162.168 L 209 168.262 212.582 167.680 C 222.500 166.071, 233.329 157.081, 236.924 147.474 C 238.239 143.960, 239 139.556, 239 135.462 C 239 127.960, 238.768 127.850, 230.011 131.211 M 439.500 153.647 C 427.904 155.513, 415.484 160.694, 406.896 167.249 C 401.624 171.274, 393.055 180.077, 393.025 181.500 C 393.001 182.645, 400.578 187.877, 406.512 190.813 C 420.989 197.975, 441.256 199.754, 456 195.155 C 468.266 191.330, 476.651 186.356, 485.500 177.657 L 493.500 169.792 490.187 167.021 C 481.046 159.374, 466.104 154.071, 452.188 153.536 C 446.859 153.332, 441.150 153.381, 439.500 153.647 M 32.750 157.652 C 29.534 158.214, 29.519 158.331, 31.573 166.356 C 35.097 180.124, 43.974 193.979, 54.758 202.543 C 62.152 208.415, 74.612 214.483, 83.500 216.541 C 90.375 218.133, 110.982 218.360, 112.475 216.861 C 113.606 215.726, 109.977 203.726, 105.998 195.440 C 98.621 180.079, 83.101 166.558, 66.118 160.696 C 58.956 158.224, 55.641 157.675, 46.500 157.446 C 40.450 157.295, 34.263 157.387, 32.750 157.652 M 15.994 216.871 C 11.828 218.244, 7 220.992, 7 221.991 C 7 224.056, 13.612 230.278, 18.410 232.728 C 25.147 236.169, 37.371 236.537, 43.428 233.481 C 45.588 232.392, 47.524 230.980, 47.730 230.344 C 48.359 228.401, 41.967 222.017, 36.742 219.369 C 31.431 216.678, 20.553 215.368, 15.994 216.871 M 402.500 233.412 C 394.887 235.164, 388 237.922, 388 239.219 C 388 242.574, 395.489 253.519, 402.992 261.132 C 409.673 267.909, 413.218 270.613, 419.500 273.720 C 431.957 279.882, 438.618 281.447, 452.500 281.475 C 463.050 281.497, 465.557 281.153, 473.250 278.632 C 478.063 277.054, 482 275.298, 482 274.728 C 482 271.355, 473.768 259.575, 466.101 251.974 C 457.332 243.281, 449.739 238.633, 437.500 234.463 C 430.723 232.154, 410.594 231.549, 402.500 233.412 M 261.230 270.550 C 254.118 272.465, 251.156 274.112, 246.236 278.887 C 240.231 284.715, 236.809 292.043, 236.210 300.361 L 235.715 307.221 239.108 306.489 C 255.290 302.996, 265.564 292.846, 267.905 278.040 C 268.727 272.840, 268.391 268.935, 267.133 269.066 C 266.785 269.102, 264.129 269.770, 261.230 270.550 M 416.397 301.407 C 415.550 303.615, 418.375 310.837, 422.095 315.972 C 427.649 323.640, 439.013 329, 449.713 329 C 456.185 329, 456.955 327.790, 454.528 321.434 C 449.841 309.162, 438.445 301.113, 424.488 300.218 C 418.174 299.812, 416.940 299.994, 416.397 301.407 M 76.344 314.041 C 64.186 316.447, 53.461 326.367, 50.201 338.221 L 49.177 341.943 52.763 342.615 C 57.442 343.493, 66.883 341.698, 72.597 338.844 C 78.339 335.977, 84.447 329.385, 87.562 322.695 C 90.908 315.508, 90.745 314.385, 86.250 313.642 C 81.967 312.934, 81.935 312.935, 76.344 314.041" stroke="none" fill="#647b43" fill-rule="evenodd"/></svg>